<svg width="20" height="20" viewBox="0 0 20 20" xmlns="http://www.w3.org/2000/svg">
<path fill="currentColor" d="M12.5963 3.48448C11.4408 1.48863 8.55921 1.48863 7.40371 3.48449L1.60706 13.4969C0.449167 15.4969 1.89234 18 4.20334 18H15.7967C18.1077 18 19.5508 15.4969 18.3929 13.4969L12.5963 3.48448ZM10 6C10.5523 6 11 6.44772 11 7V11C11 11.5523 10.5523 12 10 12C9.44771 12 9 11.5523 9 11V7C9 6.44772 9.44771 6 10 6ZM10 16C9.44772 16 9 15.5523 9 15C9 14.4477 9.44772 14 10 14C10.5523 14 11 14.4477 11 15C11 15.5523 10.5523 16 10 16Z"/>
</svg>
